<?xml version="1.0" encoding="UTF-8" standalone="no"?>
<!-- Uploaded to: SVG Repo, www.svgrepo.com, Generator: SVG Repo Mixer Tools -->

<svg
   width="622.34192"
   height="624.01721"
   viewBox="0 0 18.670258 18.720516"
   fill="none"
   version="1.1"
   id="svg1"
   sodipodi:docname="mobile.svg"
   inkscape:version="1.3.2 (091e20e, 2023-11-25, custom)"
   xmlns:inkscape="http://www.inkscape.org/namespaces/inkscape"
   xmlns:sodipodi="http://sodipodi.sourceforge.net/DTD/sodipodi-0.dtd"
   xmlns="http://www.w3.org/2000/svg"
   xmlns:svg="http://www.w3.org/2000/svg">
  <defs
     id="defs1" />
  <sodipodi:namedview
     id="namedview1"
     pagecolor="#ffffff"
     bordercolor="#000000"
     borderopacity="0.25"
     inkscape:showpageshadow="2"
     inkscape:pageopacity="0.0"
     inkscape:pagecheckerboard="0"
     inkscape:deskcolor="#d1d1d1"
     inkscape:zoom="0.9975"
     inkscape:cx="370.92732"
     inkscape:cy="334.83709"
     inkscape:window-width="1920"
     inkscape:window-height="1002"
     inkscape:window-x="-8"
     inkscape:window-y="-8"
     inkscape:window-maximized="1"
     inkscape:current-layer="svg1" />
  <path
     d="m 5.3602578,15.360258 h 2 m 5.0000002,-3 v 2.8 c 0,1.1201 0,1.6802 -0.218,2.108 -0.1917,0.3763 -0.4977,0.6823 -0.874,0.874 -0.4278,0.218 -0.9879,0.218 -2.1080001,0.218 H 3.5602578 c -1.1201,0 -1.68016,0 -2.10798,-0.218 -0.37633,-0.1917 -0.68229002,-0.4977 -0.87403002,-0.874 -0.21799,-0.4278 -0.21799,-0.9879 -0.21799,-2.108 V 3.5602575 c 0,-1.1201 0,-1.68016 0.21799,-2.10798 0.19174,-0.37633 0.49770002,-0.68228999 0.87403002,-0.87402999 0.42782,-0.21799 0.98788,-0.21799 2.10798,-0.21799 h 2.8 M 10.360258,4.4105475 c 0.9609,0.19597 1.8429,0.67018 2.5364,1.36362 0.6934,0.69344 1.1676,1.57549 1.3636,2.5363903 m -3.9,-10e-5 h 0.01 m -0.01,-7.95020029 c 2.0308,0.22586 3.9243,1.13604999 5.3691,2.58087999 1.4449,1.44484 2.355,3.33833 2.5809,5.3691203"
     stroke="#000000"
     stroke-width="2"
     stroke-linecap="round"
     stroke-linejoin="round"
     id="path1"
     style="stroke:#93c5fd;stroke-width:0.72;stroke-dasharray:none;stroke-opacity:1" />
  <path
     d="m 10.360258,4.4105475 c 0.9609,0.19597 1.8429,0.67018 2.5364,1.36362 0.6934,0.6934404 1.1676,1.5754904 1.3636,2.5363906 m -3.9,-10e-5 h 0.01 m -0.01,-7.95020061 c 2.0308,0.22586 3.9243,1.13605001 5.3691,2.58088001 1.4449,1.44484 2.355,3.33833 2.5809,5.3691206"
     stroke="#000000"
     stroke-width="2"
     stroke-linecap="round"
     stroke-linejoin="round"
     id="path2"
     style="stroke:#ffffff;stroke-width:0.72;stroke-dasharray:none;stroke-opacity:1"
     sodipodi:nodetypes="cccccccc" />
</svg>
