<?xml version="1.0" encoding="UTF-8" standalone="no"?>
<!-- Uploaded to: SVG Repo, www.svgrepo.com, Generator: SVG Repo Mixer Tools -->

<svg
   fill="#000000"
   width="800px"
   height="800px"
   viewBox="0 0 64 64"
   version="1.1"
   xml:space="preserve"
   id="svg5"
   sodipodi:docname="weather-humidity.svg"
   inkscape:version="1.3.2 (091e20e, 2023-11-25, custom)"
   xmlns:inkscape="http://www.inkscape.org/namespaces/inkscape"
   xmlns:sodipodi="http://sodipodi.sourceforge.net/DTD/sodipodi-0.dtd"
   xmlns="http://www.w3.org/2000/svg"
   xmlns:svg="http://www.w3.org/2000/svg"><defs
   id="defs5" /><sodipodi:namedview
   id="namedview5"
   pagecolor="#ffffff"
   bordercolor="#000000"
   borderopacity="0.25"
   inkscape:showpageshadow="2"
   inkscape:pageopacity="0.0"
   inkscape:pagecheckerboard="0"
   inkscape:deskcolor="#d1d1d1"
   inkscape:zoom="0.9975"
   inkscape:cx="400"
   inkscape:cy="400"
   inkscape:window-width="1920"
   inkscape:window-height="1002"
   inkscape:window-x="-8"
   inkscape:window-y="-8"
   inkscape:window-maximized="1"
   inkscape:current-layer="g5" />

<g
   id="cloudy_sunny" />

<g
   id="bright" />

<g
   id="cloudy" />

<g
   id="high_rainfall" />

<g
   id="windy" />

<g
   id="rain_with_thunder" />

<g
   id="clear_night" />

<g
   id="cloudy_night" />

<g
   id="moon" />

<g
   id="sun" />

<g
   id="rainy_night" />

<g
   id="windy_night" />

<g
   id="night_rain_thunder" />

<g
   id="windy_rain" />

<g
   id="temperature" />

<g
   id="humidity"
   style="fill:#000000;fill-opacity:1">

<g
   id="g5"
   style="fill:#93c5fd;fill-opacity:1">

<path
   d="M49.7,35.9C47.3,21.2,29.5,4,28.7,3.3c-0.4-0.4-1-0.4-1.4,0C26.4,4.1,6,23.7,6,39c0,12.1,9.9,22,22,22    c3.4,0,6.7-0.8,9.7-2.3c2.1,1.4,4.6,2.3,7.3,2.3c7.2,0,13-5.8,13-13C58,42.5,54.6,37.8,49.7,35.9z M28,59C17,59,8,50,8,39    C8,26.1,24.4,9,28,5.4C31.3,8.7,45,23,47.6,35.3C46.7,35.1,45.9,35,45,35c-7.2,0-13,5.8-13,13c0,3.7,1.5,7,4,9.3    C33.5,58.4,30.8,59,28,59z M45,59c-6.1,0-11-4.9-11-11s4.9-11,11-11s11,4.9,11,11S51.1,59,45,59z"
   id="path1"
   style="fill:#93c5fd;fill-opacity:1" />

<path
   d="M28,54c-8.3,0-15-6.7-15-15c0-0.6-0.4-1-1-1s-1,0.4-1,1c0,9.4,7.6,17,17,17c0.6,0,1-0.4,1-1S28.6,54,28,54z"
   id="path2"
   style="fill:#ffffff;fill-opacity:1" />

<path
   d="M48.4,40.1c-0.5-0.2-1.1,0-1.3,0.5l-6,14c-0.2,0.5,0,1.1,0.5,1.3C41.7,56,41.9,56,42,56c0.4,0,0.8-0.2,0.9-0.6l6-14    C49.1,40.9,48.9,40.3,48.4,40.1z"
   id="path3"
   style="fill:#ffffff;fill-opacity:1" />

<path
   d="M44,44c0-1.7-1.3-3-3-3s-3,1.3-3,3s1.3,3,3,3S44,45.7,44,44z M40,44c0-0.6,0.4-1,1-1s1,0.4,1,1s-0.4,1-1,1S40,44.6,40,44z    "
   id="path4"
   style="fill:#ffffff;fill-opacity:1" />

<path
   d="M49,49c-1.7,0-3,1.3-3,3s1.3,3,3,3s3-1.3,3-3S50.7,49,49,49z M49,53c-0.6,0-1-0.4-1-1s0.4-1,1-1s1,0.4,1,1S49.6,53,49,53z    "
   id="path5"
   style="fill:#ffffff;fill-opacity:1" />

</g>

</g>

<g
   id="air_pressure" />

<g
   id="low_rainfall" />

<g
   id="moderate_rainfall" />

<g
   id="Sunset" />

</svg>
